Coordinates
version=1
nRows=22
nColumns=24
inDegrees=yes

Units are S.I. units (second, meters, Newtons, ...)
Angles are in degrees.

endheader
time	pelvis_tilt	pelvis_list	pelvis_rotation	pelvis_tx	pelvis_ty	pelvis_tz	hip_flexion_r	hip_adduction_r	hip_rotation_r	knee_angle_r	ankle_angle_r	subtalar_angle_r	mtp_angle_r	hip_flexion_l	hip_adduction_l	hip_rotation_l	knee_angle_l	ankle_angle_l	subtalar_angle_l	mtp_angle_l	lumbar_extension	lumbar_bending	lumbar_rotation
      3.37000000	     -4.56349270	      8.53352336	      1.75862451	     -0.60107018	     -0.01848687	     -0.18076507	     28.19887444	     -9.66375769	     -1.13102513	    -67.05676237	     -8.98534352	      8.33326190	     27.19284214	     10.11209928	     17.43065978	      8.67864958	    -15.36703002	      5.99001592	     -0.07405860	     -9.92480103	      4.94366076	    -11.07174555	     -3.34960770
      3.37500000	     -4.48174088	      8.34744363	      1.90135023	     -0.59482914	     -0.01789216	     -0.18094493	     28.86116019	     -9.45452183	     -1.30938080	    -66.44574533	     -8.38066309	      7.73656685	     26.79499508	      9.28844697	     17.24146690	      9.00233029	    -15.02266916	      6.28841994	     -0.04120759	    -10.17334704	      4.78498724	    -10.91310420	     -3.63323537
      3.38000000	     -4.37084665	      8.21253416	      2.02373212	     -0.58866434	     -0.01736373	     -0.18110031	     29.49462221	     -9.29087353	     -1.45379592	    -65.82721943	     -7.69256094	      7.24264424	     26.04001425	      8.45703854	     17.09327247	      9.26511694	    -14.70830105	      6.64230432	      0.09440381	    -10.60265827	      4.57951461	    -10.80232466	     -3.90066211
      3.38500000	     -4.38506955	      7.99349888	      2.18407831	     -0.58245955	     -0.01695565	     -0.18134322	     30.20620349	     -9.06898260	     -1.64431571	    -65.04989782	     -7.22228828	      6.78208771	     25.80518461	      7.77787315	     16.85769360	      9.46306499	    -14.40175892	      6.94470497	      0.22547525	    -10.62253026	      4.52541487	    -10.59726759	     -4.15419208
      3.39000000	     -4.31811763	      7.79008743	      2.36543166	     -0.57635949	     -0.01650979	     -0.18152646	     30.79705554	     -8.87031983	     -1.88347500	    -64.20519523	     -6.79186300	      6.23928051	     25.36652231	      7.02997109	     16.62464575	      9.64404631	    -14.11600217	      7.24193954	      0.42236946	    -10.63558957	      4.35138354	    -10.42830277	     -4.49836580
      3.39500000	     -4.20925945	      7.63423684	      2.48481751	     -0.57028353	     -0.01611703	     -0.18161737	     31.34723558	     -8.67981158	     -2.04188634	    -63.36783799	     -6.19179299	      5.91204831	     24.41631111	      6.25636077	     16.42384003	      9.70953902	    -13.84530142	      7.57089311	      0.69588324	    -10.73495132	      4.13282070	    -10.29588838	     -4.77978918
      3.40000000	     -4.20992045	      7.43045232	      2.68897534	     -0.56423181	     -0.01583197	     -0.18186116	     31.95629663	     -8.50909446	     -2.28969921	    -62.37911352	     -5.79988579	      5.60872660	     24.11578063	      5.61601435	     16.19623516	      9.84649819	    -13.59942387	      7.83366861	      0.86282813	    -10.70751087	      4.02660066	    -10.11937141	     -5.13009080
      3.40500000	     -4.15683037	      7.23906226	      2.84868651	     -0.55819163	     -0.01556023	     -0.18199770	     32.48703972	     -8.31895110	     -2.49868035	    -61.33156881	     -5.39435140	      5.37333823	     23.72224202	      4.92158217	     15.96532703	      9.94907173	    -13.34749098	      8.11361674	      1.04354716	    -10.66574336	      3.86536665	     -9.95518793	     -5.42227999
      3.41000000	     -4.11415349	      7.05252640	      3.00393017	     -0.55216970	     -0.01534826	     -0.18209997	     33.00235298	     -8.13036365	     -2.69453260	    -60.22183298	     -4.98163119	      5.26232637	     23.34327318	      4.24943777	     15.73787576	     10.04801234	    -13.10743333	      8.38131698	      1.19045081	    -10.62620159	      3.71357185	     -9.79827753	     -5.69805848
      3.41500000	     -4.16388445	      6.89393600	      3.09487425	     -0.54614792	     -0.01530776	     -0.18211319	     33.62424016	     -7.92600578	     -2.78156281	    -59.05889279	     -4.62522027	      5.24522611	     23.18730160	      3.68731416	     15.54197531	     10.12596924	    -12.86448847	      8.61443481	      1.24144147	    -10.59507080	      3.68114658	     -9.66881270	     -5.85368818
      3.42000000	     -4.03869190	      6.69948357	      3.29241024	     -0.54016335	     -0.01506355	     -0.18222553	     33.95265942	     -7.75743405	     -3.03476754	    -57.78668059	     -4.21370132	      5.29267925	     22.83411214	      2.94120947	     15.30525343	     10.25970162	    -12.65826443	      8.86297110	      1.35230746	    -10.57439315	      3.42792186	     -9.50184054	     -6.19906263
      3.42500000	     -3.97707120	      6.53517602	      3.39762519	     -0.53416230	     -0.01497440	     -0.18218474	     34.36560312	     -7.55825535	     -3.17254435	    -56.49307894	     -3.81758327	      5.45651711	     22.52271678	      2.25569773	     15.09231150	     10.36882848	    -12.41402224	      9.09015973	      1.36686019	    -10.59827602	      3.25900084	     -9.37380930	     -6.42360321
      3.43000000	     -3.93124231	      6.37899528	      3.51031235	     -0.52818351	     -0.01492930	     -0.18214165	     34.75732022	     -7.36573385	     -3.28912428	    -55.12781147	     -3.44489311	      5.67590429	     22.29205671	      1.60265447	     14.89127272	     10.48724134	    -12.19841259	      9.29644888	      1.35609844	    -10.64235336	      3.10484150	     -9.25015898	     -6.63842628
      3.43500000	     -3.87567126	      6.23216586	      3.61135416	     -0.52221952	     -0.01491051	     -0.18206238	     35.10509411	     -7.17174450	     -3.38072119	    -53.70117138	     -3.09521472	      5.94250991	     22.10149258	      0.94273261	     14.69618211	     10.60463154	    -11.98622835	      9.49091265	      1.32840935	    -10.71001518	      2.93931789	     -9.13754311	     -6.84716151
      3.44000000	     -3.90334508	      6.09137592	      3.68779512	     -0.51627773	     -0.01501601	     -0.18193000	     35.52489276	     -6.95569633	     -3.40041966	    -52.22188552	     -2.83041648	      6.21140849	     21.98715241	      0.39751507	     14.50996746	     10.68039514	    -11.80647773	      9.67696252	      1.29943160	    -10.74315398	      2.86218119	     -9.03108876	     -6.99261632
      3.44500000	     -3.73825078	      5.96976982	      3.79922519	     -0.51033068	     -0.01494868	     -0.18183919	     35.66239417	     -6.79799889	     -3.50299155	    -50.67737206	     -2.45356277	      6.57279258	     21.81767891	     -0.38975802	     14.32494415	     10.81546599	    -11.58582425	      9.85521985	      1.29338766	    -10.86313316	      2.56508219	     -8.94582307	     -7.26285438
      3.45000000	     -3.66147608	      5.85429457	      3.88114100	     -0.50440964	     -0.01500987	     -0.18166849	     35.87898499	     -6.61531382	     -3.53874403	    -49.09361415	     -2.13734080	      6.91645835	     21.64408643	     -1.05725516	     14.14427633	     10.90533813	    -11.39528600	     10.03283664	      1.30269978	    -10.98228821	      2.36026484	     -8.87062501	     -7.44705583
      3.45500000	     -3.65778413	      5.74618047	      3.95078055	     -0.49851158	     -0.01518032	     -0.18150697	     36.14927269	     -6.42473884	     -3.50037819	    -47.46864140	     -1.89664702	      7.25509393	     21.50968464	     -1.62073987	     13.97622226	     10.95900562	    -11.24212741	     10.21273751	      1.34225308	    -11.04049927	      2.24057652	     -8.79191539	     -7.59142315
      3.46000000	     -3.48618513	      5.66923050	      4.03945729	     -0.49260959	     -0.01519959	     -0.18132641	     36.17123934	     -6.28557297	     -3.52274956	    -45.78916635	     -1.54930834	      7.59969999	     21.31943372	     -2.38867824	     13.81049402	     10.98294337	    -11.05543086	     10.39155027	      1.50056427	    -11.15448765	      1.92821025	     -8.75069678	     -7.81688048
      3.46500000	     -3.37942208	      5.59632810	      4.10646584	     -0.48672856	     -0.01531468	     -0.18112070	     36.23787393	     -6.12627486	     -3.46721200	    -44.07977736	     -1.26183274	      7.90953573	     21.08164290	     -3.06214062	     13.64868666	     10.96594601	    -10.90528616	     10.58818008	      1.71107248	    -11.25807844	      1.68582171	     -8.71096740	     -7.99838845
      3.47000000	     -3.27931298	      5.53233129	      4.17251251	     -0.48084707	     -0.01546032	     -0.18093019	     36.27027987	     -5.98056129	     -3.39985141	    -42.33338948	     -0.97305302	      8.20052203	     20.84206424	     -3.71501155	     13.48963986	     10.90209426	    -10.77677447	     10.78960493	      2.00488896	    -11.32481797	      1.45377252	     -8.67410889	     -8.16291630
      3.47500000	     -3.15762806	      5.47714223	      4.23129759	     -0.47500797	     -0.01560077	     -0.18070652	     36.23895598	     -5.82923562	     -3.27735381	    -40.55528578	     -0.70578374	      8.45366800	     20.54259973	     -4.37038402	     13.32590456	     10.78450379	    -10.67872785	     11.01597387	      2.41806355	    -11.36469550	      1.18838242	     -8.64759201	     -8.34253986
